STARTFONT 2.1
FONT -nil-FFT-medium-r-normal--12-120-72-72-c-60-iso8859-1
SIZE 12 72 72
FONTBOUNDINGBOX 6 10 -1 -3
COMMENT "Generated by fontforge, http://fontforge.sourceforge.net"
STARTPROPERTIES 13
CAP_HEIGHT 10
POINT_SIZE 120
WEIGHT 10
RESOLUTION_X 72
RESOLUTION_Y 72
X_HEIGHT 5
QUAD_WIDTH 6
FAMILY_NAME "FFT"
WEIGHT_NAME "Medium"
SLANT "R"
CHARSET_REGISTRY "ISO8859"
CHARSET_ENCODING "1"
RESOLUTION 99
ENDPROPERTIES
CHARS 10
STARTCHAR $48
ENCODING 48
SWIDTH 414 0
DWIDTH 5 0
BBX 6 7 -1 -1
BITMAP
78
FC
FC
FC
FC
FC
78
ENDCHAR
STARTCHAR $49
ENCODING 49
SWIDTH 414 0
DWIDTH 5 0
BBX 6 7 -1 -1
BITMAP
FC
FC
FC
78
FC
FC
FC
ENDCHAR
STARTCHAR $50
ENCODING 50
SWIDTH 414 0
DWIDTH 5 0
BBX 6 7 -1 -1
BITMAP
F8
FC
FC
7C
FC
FC
FC
ENDCHAR
STARTCHAR $51
ENCODING 51
SWIDTH 414 0
DWIDTH 5 0
BBX 6 9 -1 -3
BITMAP
78
7C
7C
3C
3C
3C
FC
F8
F0
ENDCHAR
STARTCHAR $52
ENCODING 52
SWIDTH 414 0
DWIDTH 5 0
BBX 6 9 -1 -3
BITMAP
38
78
F8
F8
FC
FC
FC
3C
38
ENDCHAR
STARTCHAR $53
ENCODING 53
SWIDTH 414 0
DWIDTH 5 0
BBX 6 9 -1 -3
BITMAP
FC
FC
FC
F8
F8
78
F8
F0
E0
ENDCHAR
STARTCHAR $54
ENCODING 54
SWIDTH 414 0
DWIDTH 5 0
BBX 6 8 -1 -1
BITMAP
38
78
F8
FC
FC
FC
FC
78
ENDCHAR
STARTCHAR $55
ENCODING 55
SWIDTH 414 0
DWIDTH 5 0
BBX 6 9 -1 -3
BITMAP
FC
FC
FC
FC
78
78
F0
E0
E0
ENDCHAR
STARTCHAR $56
ENCODING 56
SWIDTH 414 0
DWIDTH 5 0
BBX 6 8 -1 -1
BITMAP
78
FC
FC
FC
FC
FC
FC
78
ENDCHAR
STARTCHAR $57
ENCODING 57
SWIDTH 414 0
DWIDTH 5 0
BBX 6 9 -1 -3
BITMAP
38
7C
FC
FC
FC
FC
F8
F0
E0
ENDCHAR
ENDFONT
