STARTFONT 2.1
FONT -nil-FFT-medium-r-normal--12-120-72-72-c-60-iso8859-1
SIZE 12 72 72
FONTBOUNDINGBOX 6 10 0 0
COMMENT "Generated by fontforge, http://fontforge.sourceforge.net"
STARTPROPERTIES 13
CAP_HEIGHT 10
POINT_SIZE 120
WEIGHT 10
RESOLUTION_X 72
RESOLUTION_Y 72
X_HEIGHT 5
QUAD_WIDTH 6
FAMILY_NAME "FFT"
WEIGHT_NAME "Medium"
SLANT "R"
CHARSET_REGISTRY "ISO8859"
CHARSET_ENCODING "1"
RESOLUTION 99
ENDPROPERTIES
CHARS 10
STARTCHAR $48
ENCODING 48
SWIDTH 414 0
DWIDTH 5 0
BBX 6 10 0 0
BITMAP
FC
84
B4
CC
CC
CC
B4
84
84
FC
ENDCHAR
STARTCHAR $49
ENCODING 49
SWIDTH 414 0
DWIDTH 5 0
BBX 6 10 0 0
BITMAP
FC
84
F4
A4
A4
A4
F4
84
84
FC
ENDCHAR
STARTCHAR $50
ENCODING 50
SWIDTH 414 0
DWIDTH 5 0
BBX 6 10 0 0
BITMAP
FC
84
B4
8C
94
A4
FC
84
84
FC
ENDCHAR
STARTCHAR $51
ENCODING 51
SWIDTH 414 0
DWIDTH 5 0
BBX 6 10 0 0
BITMAP
FC
84
B4
8C
94
8C
8C
94
E4
FC
ENDCHAR
STARTCHAR $52
ENCODING 52
SWIDTH 414 0
DWIDTH 5 0
BBX 6 10 0 0
BITMAP
FC
84
94
B4
D4
D4
FC
94
94
FC
ENDCHAR
STARTCHAR $53
ENCODING 53
SWIDTH 414 0
DWIDTH 5 0
BBX 6 10 0 0
BITMAP
FC
84
FC
C4
E4
94
94
B4
E4
FC
ENDCHAR
STARTCHAR $54
ENCODING 54
SWIDTH 414 0
DWIDTH 5 0
BBX 6 10 0 0
BITMAP
FC
94
A4
B4
CC
CC
B4
84
84
FC
ENDCHAR
STARTCHAR $55
ENCODING 55
SWIDTH 414 0
DWIDTH 5 0
BBX 6 10 0 0
BITMAP
FC
84
FC
CC
9C
94
A4
E4
C4
FC
ENDCHAR
STARTCHAR $56
ENCODING 56
SWIDTH 414 0
DWIDTH 5 0
BBX 6 10 0 0
BITMAP
FC
B4
CC
B4
CC
CC
B4
84
84
FC
ENDCHAR
STARTCHAR $57
ENCODING 57
SWIDTH 414 0
DWIDTH 5 0
BBX 6 10 0 0
BITMAP
FC
84
B4
CC
CC
BC
94
A4
C4
FC
ENDCHAR
ENDFONT
