STARTFONT 2.1
FONT -nil-FFT-medium-r-normal--12-120-72-72-c-60-iso8859-1
SIZE 12 72 72
FONTBOUNDINGBOX 17 32 0 0
COMMENT "Generated by fontforge, http://fontforge.sourceforge.net"
STARTPROPERTIES 13
CAP_HEIGHT 10
POINT_SIZE 120
WEIGHT 10
RESOLUTION_X 72
RESOLUTION_Y 72
X_HEIGHT 5
QUAD_WIDTH 6
FAMILY_NAME "FFT"
WEIGHT_NAME "Medium"
SLANT "R"
CHARSET_REGISTRY "ISO8859"
CHARSET_ENCODING "1"
RESOLUTION 99
ENDPROPERTIES
CHARS 12
STARTCHAR $48
ENCODING 48
SWIDTH 1250 0
DWIDTH 15 0
BBX 16 32 0 0
BITMAP
FFFF
8001
8001
8001
8001
8001
81C1
8661
8431
8431
8471
8459
8489
8589
8709
8609
8209
8311
80B1
80E1
8001
8001
8001
8001
8001
8001
8001
8001
8001
8001
8001
FFFF
ENDCHAR
STARTCHAR $49
ENCODING 49
SWIDTH 1164 0
DWIDTH 14 0
BBX 14 32 0 0
BITMAP
FFFC
8004
8004
8004
8104
8304
8504
8904
8104
8104
8104
8104
8104
8104
8104
8104
8104
8104
8104
8104
8104
8104
8104
8104
8104
8104
8104
8FE4
8004
8004
8004
FFFC
ENDCHAR
STARTCHAR $50
ENCODING 50
SWIDTH 1332 0
DWIDTH 16 0
BBX 17 32 0 0
BITMAP
FFFF80
800080
800080
800080
800080
81E080
833080
841880
840880
840880
840C80
800480
800880
800880
801080
803080
806080
804080
80C080
818080
830080
8E0080
8FFC80
800080
800080
800080
800080
800080
800080
800080
800080
FFFF80
ENDCHAR
STARTCHAR $51
ENCODING 51
SWIDTH 1250 0
DWIDTH 15 0
BBX 15 32 0 0
BITMAP
FFFE
8002
8002
8002
8002
8002
8002
8002
8782
8C62
8022
8022
80E2
83C2
8062
8032
8012
801A
900A
9812
8FE2
8002
8002
8002
8002
8002
8002
8002
8002
8002
8002
FFFE
ENDCHAR
STARTCHAR $52
ENCODING 52
SWIDTH 1332 0
DWIDTH 16 0
BBX 17 32 0 0
BITMAP
FFFF80
800080
800080
800080
800080
800080
800080
800080
800080
880080
880080
880080
880080
880080
884080
884080
8FF080
804080
804080
804080
804080
804080
800080
800080
800080
800080
800080
800080
800080
800080
800080
FFFF80
ENDCHAR
STARTCHAR $53
ENCODING 53
SWIDTH 1250 0
DWIDTH 15 0
BBX 16 32 0 0
BITMAP
FFFF
8001
8001
8001
8001
8001
8001
8001
9FF9
8801
8801
8C01
8401
87C1
8461
8031
8019
8009
8009
8809
8819
8731
81E1
8001
8001
8001
8001
8001
8001
8001
8001
FFFF
ENDCHAR
STARTCHAR $54
ENCODING 54
SWIDTH 1250 0
DWIDTH 15 0
BBX 16 32 0 0
BITMAP
FFFF
8001
8001
8001
8001
8001
8001
8061
83C1
8C01
8801
9801
9001
9001
9001
9001
9F81
8C61
8C31
8411
8619
8311
81F1
8001
8001
8001
8001
8001
8001
8001
8001
FFFF
ENDCHAR
STARTCHAR $55
ENCODING 55
SWIDTH 1332 0
DWIDTH 16 0
BBX 16 32 0 0
BITMAP
FFFF
8001
8001
8001
8001
8001
8FFD
8019
8031
8021
8041
80C1
8081
8081
8181
8101
8FE1
8101
8101
8101
8301
8201
8201
8201
8101
8101
8101
8001
8001
8001
8001
FFFF
ENDCHAR
STARTCHAR $56
ENCODING 56
SWIDTH 1332 0
DWIDTH 16 0
BBX 17 32 0 0
BITMAP
FFFF80
800080
800080
800080
800080
800080
800080
81E080
832080
822080
822080
832080
81E080
80C080
81C080
836080
823080
821880
860880
840880
860880
820880
821880
81B080
80E080
800080
800080
800080
800080
800080
800080
FFFF80
ENDCHAR
STARTCHAR $57
ENCODING 57
SWIDTH 1250 0
DWIDTH 15 0
BBX 15 32 0 0
BITMAP
FFFE
8002
8002
8002
8002
8002
8002
8782
8C42
8842
8842
8822
8662
83E2
8022
8062
8042
80C2
8182
8302
8602
8002
8002
8002
8002
8002
8002
8002
8002
8002
8002
FFFE
ENDCHAR
STARTCHAR a
ENCODING 97
SWIDTH 1164 0
DWIDTH 14 0
BBX 15 32 0 0
BITMAP
FFFE
8002
8002
8002
8002
8002
8002
8002
8002
87E2
8402
8402
8402
8582
C662
E022
C022
8C62
87C2
8002
8002
8002
8002
8002
8002
8002
8002
8002
8002
8002
8002
FFFE
ENDCHAR
STARTCHAR h
ENCODING 104
SWIDTH 1164 0
DWIDTH 14 0
BBX 14 32 0 0
BITMAP
FFFC
8004
8004
8004
8004
8004
8004
8004
8404
8404
8404
8404
8704
8504
8504
8504
8004
8004
8004
8004
8004
8004
8004
8004
8004
8004
8004
8004
8004
8004
8004
FFFC
ENDCHAR
ENDFONT
