STARTFONT 2.1
FONT -FontForge-FFTWhite-Medium-R-Normal--12-120-75-75-P-48-ISO10646-1
SIZE 12 75 75
FONTBOUNDINGBOX 9 11 -1 -1
COMMENT "Generated by fontforge, http://fontforge.sourceforge.net"
COMMENT "Created with FontForge 2.0 (http://fontforge.sf.net)"
STARTPROPERTIES 30
FOUNDRY "FontForge"
FAMILY_NAME "FFTWhite"
WEIGHT_NAME "Medium"
SLANT "R"
SETWIDTH_NAME "Normal"
ADD_STYLE_NAME ""
PIXEL_SIZE 12
POINT_SIZE 120
RESOLUTION_X 75
RESOLUTION_Y 75
SPACING "P"
AVERAGE_WIDTH 48
CHARSET_REGISTRY "ISO10646"
CHARSET_ENCODING "1"
FONTNAME_REGISTRY ""
CHARSET_COLLECTIONS "ISO10646-1"
FONT_NAME "FFTWhite"
FACE_NAME "FFTWhite"
FONT_VERSION "001.000"
FONT_ASCENT 9
FONT_DESCENT 3
UNDERLINE_POSITION -1
UNDERLINE_THICKNESS 1
X_HEIGHT 6
CAP_HEIGHT 8
RAW_ASCENT 800
RAW_DESCENT 200
NORM_SPACE 2
AVG_LOWERCASE_WIDTH 41
AVG_UPPERCASE_WIDTH 65
ENDPROPERTIES
CHARS 94
STARTCHAR uni001F
ENCODING 31
SWIDTH 150 0
DWIDTH 2 0
BBX 1 1 2 0
BITMAP
00
ENDCHAR
STARTCHAR space
ENCODING 32
SWIDTH 150 0
DWIDTH 2 0
BBX 1 1 2 0
BITMAP
00
ENDCHAR
STARTCHAR exclam
ENCODING 33
SWIDTH 166 0
DWIDTH 2 0
BBX 3 8 -1 1
BITMAP
E0
A0
A0
A0
A0
E0
A0
E0
ENDCHAR
STARTCHAR quotedbl
ENCODING 34
SWIDTH 333 0
DWIDTH 4 0
BBX 5 4 -1 6
BITMAP
F8
A8
A8
F8
ENDCHAR
STARTCHAR numbersign
ENCODING 35
SWIDTH 500 0
DWIDTH 6 0
BBX 9 7 -1 1
BITMAP
7C00
D600
8200
D600
8200
D600
7C00
ENDCHAR
STARTCHAR dollar
ENCODING 36
SWIDTH 333 0
DWIDTH 4 0
BBX 5 9 -1 0
BITMAP
70
D8
88
B8
D8
E8
88
D8
70
ENDCHAR
STARTCHAR percent
ENCODING 37
SWIDTH 583 0
DWIDTH 7 0
BBX 8 8 -1 0
BITMAP
FF
9D
AB
97
E9
D5
B9
FF
ENDCHAR
STARTCHAR ampersand
ENCODING 38
SWIDTH 416 0
DWIDTH 5 0
BBX 8 7 -1 0
BITMAP
F8
9C
AC
94
AC
94
FC
ENDCHAR
STARTCHAR quotesingle
ENCODING 39
SWIDTH 166 0
DWIDTH 2 0
BBX 3 4 -1 6
BITMAP
E0
A0
A0
E0
ENDCHAR
STARTCHAR parenleft
ENCODING 40
SWIDTH 250 0
DWIDTH 3 0
BBX 4 9 -1 0
BITMAP
70
D0
B0
A0
A0
A0
B0
D0
70
ENDCHAR
STARTCHAR parenright
ENCODING 41
SWIDTH 250 0
DWIDTH 3 0
BBX 4 9 -1 0
BITMAP
E0
B0
D0
50
50
50
D0
B0
E0
ENDCHAR
STARTCHAR asterisk
ENCODING 42
SWIDTH 333 0
DWIDTH 4 0
BBX 5 5 -1 4
BITMAP
F8
A8
D8
A8
F8
ENDCHAR
STARTCHAR plus
ENCODING 43
SWIDTH 333 0
DWIDTH 4 0
BBX 5 5 -1 2
BITMAP
70
D8
88
D8
70
ENDCHAR
STARTCHAR comma
ENCODING 44
SWIDTH 250 0
DWIDTH 3 0
BBX 4 4 -1 -1
BITMAP
70
D0
B0
E0
ENDCHAR
STARTCHAR hyphen
ENCODING 45
SWIDTH 416 0
DWIDTH 5 0
BBX 6 3 -1 3
BITMAP
FC
84
FC
ENDCHAR
STARTCHAR period
ENCODING 46
SWIDTH 166 0
DWIDTH 2 0
BBX 3 3 -1 1
BITMAP
E0
A0
E0
ENDCHAR
STARTCHAR slash
ENCODING 47
SWIDTH 416 0
DWIDTH 5 0
BBX 6 9 -1 0
BITMAP
1C
3C
3C
7C
78
F8
F0
F0
E0
ENDCHAR
STARTCHAR zero
ENCODING 48
SWIDTH 416 0
DWIDTH 5 0
BBX 6 7 -1 1
BITMAP
78
CC
B4
B4
B4
CC
78
ENDCHAR
STARTCHAR one
ENCODING 49
SWIDTH 416 0
DWIDTH 5 0
BBX 6 7 -1 1
BITMAP
FC
8C
DC
58
DC
8C
FC
ENDCHAR
STARTCHAR two
ENCODING 50
SWIDTH 416 0
DWIDTH 5 0
BBX 6 7 -1 1
BITMAP
FC
8C
F4
EC
DC
84
FC
ENDCHAR
STARTCHAR three
ENCODING 51
SWIDTH 416 0
DWIDTH 5 0
BBX 6 9 -1 -1
BITMAP
7C
4C
74
2C
34
74
EC
9C
F8
ENDCHAR
STARTCHAR four
ENCODING 52
SWIDTH 416 0
DWIDTH 5 0
BBX 6 9 -1 -1
BITMAP
78
68
C8
A8
AC
84
EC
2C
38
ENDCHAR
STARTCHAR five
ENCODING 53
SWIDTH 416 0
DWIDTH 5 0
BBX 6 9 -1 -1
BITMAP
FC
84
BC
98
E8
68
C8
98
F0
ENDCHAR
STARTCHAR six
ENCODING 54
SWIDTH 416 0
DWIDTH 5 0
BBX 6 8 -1 0
BITMAP
78
68
D8
8C
B4
B4
CC
F8
ENDCHAR
STARTCHAR seven
ENCODING 55
SWIDTH 416 0
DWIDTH 5 0
BBX 6 9 -1 -1
BITMAP
FC
84
B4
E4
EC
D8
98
B0
E0
ENDCHAR
STARTCHAR eight
ENCODING 56
SWIDTH 416 0
DWIDTH 5 0
BBX 6 8 -1 0
BITMAP
FC
CC
B4
CC
B4
B4
CC
FC
ENDCHAR
STARTCHAR nine
ENCODING 57
SWIDTH 416 0
DWIDTH 5 0
BBX 6 9 -1 -1
BITMAP
7C
CC
B4
B4
C4
EC
DC
B8
F0
ENDCHAR
STARTCHAR colon
ENCODING 58
SWIDTH 166 0
DWIDTH 2 0
BBX 3 7 -1 1
BITMAP
E0
A0
E0
00
E0
A0
E0
ENDCHAR
STARTCHAR semicolon
ENCODING 59
SWIDTH 250 0
DWIDTH 3 0
BBX 4 8 -1 0
BITMAP
70
50
70
00
70
D0
B0
E0
ENDCHAR
STARTCHAR less
ENCODING 60
SWIDTH 416 0
DWIDTH 5 0
BBX 6 9 -1 0
BITMAP
1C
34
6C
D8
90
D8
6C
34
1C
ENDCHAR
STARTCHAR equal
ENCODING 61
SWIDTH 416 0
DWIDTH 5 0
BBX 6 5 -1 2
BITMAP
FC
84
FC
84
FC
ENDCHAR
STARTCHAR greater
ENCODING 62
SWIDTH 416 0
DWIDTH 5 0
BBX 6 9 -1 0
BITMAP
E0
B0
D8
6C
34
6C
D8
B0
E0
ENDCHAR
STARTCHAR question
ENCODING 63
SWIDTH 333 0
DWIDTH 4 0
BBX 5 8 -1 1
BITMAP
F8
88
E8
48
58
70
50
70
ENDCHAR
STARTCHAR at
ENCODING 64
SWIDTH 666 0
DWIDTH 8 0
BBX 9 9 -1 0
BITMAP
7F00
C180
A680
BA80
AA80
A080
BF80
4100
3E00
ENDCHAR
STARTCHAR A
ENCODING 65
SWIDTH 666 0
DWIDTH 8 0
BBX 9 8 -1 1
BITMAP
1C00
3600
2200
6B00
4100
DD80
8880
FF80
ENDCHAR
STARTCHAR B
ENCODING 66
SWIDTH 500 0
DWIDTH 6 0
BBX 7 8 -1 1
BITMAP
F8
84
D4
46
5A
DA
86
FE
ENDCHAR
STARTCHAR C
ENCODING 67
SWIDTH 583 0
DWIDTH 7 0
BBX 8 8 -1 1
BITMAP
3F
65
D9
BF
BF
DD
63
7E
ENDCHAR
STARTCHAR D
ENCODING 68
SWIDTH 500 0
DWIDTH 6 0
BBX 7 8 -1 1
BITMAP
FC
82
DA
5A
5A
DA
86
FE
ENDCHAR
STARTCHAR E
ENCODING 69
SWIDTH 500 0
DWIDTH 6 0
BBX 7 8 -1 1
BITMAP
FE
82
DA
46
DE
DA
82
FE
ENDCHAR
STARTCHAR F
ENCODING 70
SWIDTH 500 0
DWIDTH 6 0
BBX 7 8 -1 1
BITMAP
FE
82
DA
46
54
DC
88
F8
ENDCHAR
STARTCHAR G
ENCODING 71
SWIDTH 583 0
DWIDTH 7 0
BBX 8 8 -1 1
BITMAP
3F
61
DD
BF
B9
DD
63
7E
ENDCHAR
STARTCHAR H
ENCODING 72
SWIDTH 583 0
DWIDTH 7 0
BBX 8 8 -1 1
BITMAP
FF
91
DB
42
5A
DB
91
FF
ENDCHAR
STARTCHAR I
ENCODING 73
SWIDTH 500 0
DWIDTH 6 0
BBX 7 8 -1 1
BITMAP
FE
82
EE
6C
6C
CE
82
FE
ENDCHAR
STARTCHAR J
ENCODING 74
SWIDTH 500 0
DWIDTH 6 0
BBX 7 8 -1 1
BITMAP
3E
22
36
F6
B6
B6
CE
7C
ENDCHAR
STARTCHAR K
ENCODING 75
SWIDTH 500 0
DWIDTH 6 0
BBX 7 8 -1 1
BITMAP
FE
92
D6
4C
54
D6
82
FE
ENDCHAR
STARTCHAR L
ENCODING 76
SWIDTH 500 0
DWIDTH 6 0
BBX 7 8 -1 1
BITMAP
F8
88
D8
50
5E
DA
82
FE
ENDCHAR
STARTCHAR M
ENCODING 77
SWIDTH 666 0
DWIDTH 8 0
BBX 9 8 -1 1
BITMAP
FF80
9C80
C980
4100
5500
DD80
8880
FF80
ENDCHAR
STARTCHAR N
ENCODING 78
SWIDTH 666 0
DWIDTH 8 0
BBX 9 8 -1 1
BITMAP
FF80
9C80
CD80
4500
5100
D980
8880
FF80
ENDCHAR
STARTCHAR O
ENCODING 79
SWIDTH 583 0
DWIDTH 7 0
BBX 8 8 -1 1
BITMAP
3E
63
D9
BD
BD
D9
63
7E
ENDCHAR
STARTCHAR P
ENCODING 80
SWIDTH 500 0
DWIDTH 6 0
BBX 7 8 -1 1
BITMAP
FE
82
DA
5A
46
CE
9C
F8
ENDCHAR
STARTCHAR Q
ENCODING 81
SWIDTH 583 0
DWIDTH 7 0
BBX 8 8 -1 1
BITMAP
3E
63
D9
BD
B5
DB
65
7F
ENDCHAR
STARTCHAR R
ENCODING 82
SWIDTH 500 0
DWIDTH 6 0
BBX 7 8 -1 1
BITMAP
FE
82
DA
5A
46
DA
92
FE
ENDCHAR
STARTCHAR S
ENCODING 83
SWIDTH 500 0
DWIDTH 6 0
BBX 7 8 -1 1
BITMAP
7E
82
BA
8E
E6
BA
82
FE
ENDCHAR
STARTCHAR T
ENCODING 84
SWIDTH 500 0
DWIDTH 6 0
BBX 7 8 -1 1
BITMAP
FE
82
AA
EE
28
6C
44
7C
ENDCHAR
STARTCHAR U
ENCODING 85
SWIDTH 500 0
DWIDTH 6 0
BBX 7 8 -1 1
BITMAP
FE
B6
B6
B6
B6
B6
CE
7C
ENDCHAR
STARTCHAR V
ENCODING 86
SWIDTH 500 0
DWIDTH 6 0
BBX 7 8 -1 1
BITMAP
FE
82
D6
54
6C
6C
6C
38
ENDCHAR
STARTCHAR W
ENCODING 87
SWIDTH 666 0
DWIDTH 8 0
BBX 9 8 -1 1
BITMAP
FF80
8880
DD80
5500
6300
6B00
6B00
3E00
ENDCHAR
STARTCHAR X
ENCODING 88
SWIDTH 500 0
DWIDTH 6 0
BBX 7 8 -1 1
BITMAP
FE
82
D6
6C
54
D6
92
FE
ENDCHAR
STARTCHAR Y
ENCODING 89
SWIDTH 500 0
DWIDTH 6 0
BBX 7 8 -1 1
BITMAP
FE
82
D6
54
6C
28
28
38
ENDCHAR
STARTCHAR Z
ENCODING 90
SWIDTH 500 0
DWIDTH 6 0
BBX 7 8 -1 1
BITMAP
FE
82
F2
E6
CE
9E
82
FE
ENDCHAR
STARTCHAR bracketleft
ENCODING 91
SWIDTH 250 0
DWIDTH 3 0
BBX 4 9 -1 0
BITMAP
F0
90
B0
A0
A0
A0
B0
90
F0
ENDCHAR
STARTCHAR backslash
ENCODING 92
SWIDTH 416 0
DWIDTH 5 0
BBX 6 9 -1 0
BITMAP
E0
F0
F0
F8
78
7C
3C
3C
1C
ENDCHAR
STARTCHAR bracketright
ENCODING 93
SWIDTH 250 0
DWIDTH 3 0
BBX 4 9 -1 0
BITMAP
F0
90
D0
50
50
50
D0
90
F0
ENDCHAR
STARTCHAR asciicircum
ENCODING 94
SWIDTH 500 0
DWIDTH 6 0
BBX 9 5 -1 4
BITMAP
3800
6C00
D600
BA00
EE00
ENDCHAR
STARTCHAR underscore
ENCODING 95
SWIDTH 416 0
DWIDTH 5 0
BBX 6 3 -1 0
BITMAP
FC
84
FC
ENDCHAR
STARTCHAR a
ENCODING 97
SWIDTH 416 0
DWIDTH 5 0
BBX 6 6 -1 1
BITMAP
F8
88
EC
AC
84
FC
ENDCHAR
STARTCHAR b
ENCODING 98
SWIDTH 333 0
DWIDTH 4 0
BBX 5 7 -1 1
BITMAP
E0
B0
98
A8
A8
98
F0
ENDCHAR
STARTCHAR c
ENCODING 99
SWIDTH 416 0
DWIDTH 5 0
BBX 6 6 -1 1
BITMAP
F8
CC
A4
9C
CC
F8
ENDCHAR
STARTCHAR d
ENCODING 100
SWIDTH 333 0
DWIDTH 4 0
BBX 5 7 -1 1
BITMAP
38
E8
88
A8
A8
88
F8
ENDCHAR
STARTCHAR e
ENCODING 101
SWIDTH 416 0
DWIDTH 5 0
BBX 6 6 -1 1
BITMAP
F8
CC
A4
9C
CC
F8
ENDCHAR
STARTCHAR f
ENCODING 102
SWIDTH 333 0
DWIDTH 4 0
BBX 5 7 -1 1
BITMAP
78
48
D8
88
D8
58
70
ENDCHAR
STARTCHAR g
ENCODING 103
SWIDTH 333 0
DWIDTH 4 0
BBX 5 7 -1 0
BITMAP
F8
88
A8
88
E8
98
F8
ENDCHAR
STARTCHAR h
ENCODING 104
SWIDTH 333 0
DWIDTH 4 0
BBX 5 7 -1 1
BITMAP
E0
B8
88
A8
A8
A8
F8
ENDCHAR
STARTCHAR i
ENCODING 105
SWIDTH 166 0
DWIDTH 2 0
BBX 3 7 -1 1
BITMAP
E0
A0
E0
A0
A0
A0
E0
ENDCHAR
STARTCHAR j
ENCODING 106
SWIDTH 250 0
DWIDTH 3 0
BBX 4 8 -1 0
BITMAP
70
50
70
50
50
D0
90
F0
ENDCHAR
STARTCHAR k
ENCODING 107
SWIDTH 333 0
DWIDTH 4 0
BBX 5 7 -1 1
BITMAP
E0
B8
A8
98
98
A8
F8
ENDCHAR
STARTCHAR l
ENCODING 108
SWIDTH 166 0
DWIDTH 2 0
BBX 3 7 -1 1
BITMAP
E0
A0
A0
A0
A0
A0
E0
ENDCHAR
STARTCHAR m
ENCODING 109
SWIDTH 500 0
DWIDTH 6 0
BBX 7 6 -1 1
BITMAP
FE
96
AA
AA
AA
FE
ENDCHAR
STARTCHAR n
ENCODING 110
SWIDTH 333 0
DWIDTH 4 0
BBX 5 6 -1 1
BITMAP
F8
98
A8
A8
A8
F8
ENDCHAR
STARTCHAR o
ENCODING 111
SWIDTH 416 0
DWIDTH 5 0
BBX 6 6 -1 1
BITMAP
78
CC
B4
B4
CC
78
ENDCHAR
STARTCHAR p
ENCODING 112
SWIDTH 333 0
DWIDTH 4 0
BBX 5 7 -1 0
BITMAP
F8
98
A8
A8
98
B0
E0
ENDCHAR
STARTCHAR q
ENCODING 113
SWIDTH 333 0
DWIDTH 4 0
BBX 5 7 -1 0
BITMAP
F8
C8
A8
A8
C8
68
38
ENDCHAR
STARTCHAR r
ENCODING 114
SWIDTH 333 0
DWIDTH 4 0
BBX 5 6 -1 1
BITMAP
F8
88
B8
A0
A0
E0
ENDCHAR
STARTCHAR s
ENCODING 115
SWIDTH 333 0
DWIDTH 4 0
BBX 5 6 -1 1
BITMAP
F8
88
B8
C8
88
F8
ENDCHAR
STARTCHAR t
ENCODING 116
SWIDTH 333 0
DWIDTH 4 0
BBX 5 7 -1 1
BITMAP
70
D8
88
D8
58
48
78
ENDCHAR
STARTCHAR u
ENCODING 117
SWIDTH 333 0
DWIDTH 4 0
BBX 5 6 -1 1
BITMAP
F8
A8
A8
A8
C8
78
ENDCHAR
STARTCHAR v
ENCODING 118
SWIDTH 333 0
DWIDTH 4 0
BBX 5 6 -1 1
BITMAP
F8
A8
A8
88
D8
70
ENDCHAR
STARTCHAR w
ENCODING 119
SWIDTH 500 0
DWIDTH 6 0
BBX 7 6 -1 1
BITMAP
FE
AA
AA
82
D6
7C
ENDCHAR
STARTCHAR x
ENCODING 120
SWIDTH 333 0
DWIDTH 4 0
BBX 5 6 -1 1
BITMAP
F8
A8
D8
A8
A8
F8
ENDCHAR
STARTCHAR y
ENCODING 121
SWIDTH 333 0
DWIDTH 4 0
BBX 5 7 -1 0
BITMAP
F8
A8
A8
88
D8
90
E0
ENDCHAR
STARTCHAR z
ENCODING 122
SWIDTH 333 0
DWIDTH 4 0
BBX 5 6 -1 1
BITMAP
F8
88
C8
B8
88
F8
ENDCHAR
STARTCHAR braceleft
ENCODING 123
SWIDTH 333 0
DWIDTH 4 0
BBX 5 9 -1 0
BITMAP
38
68
58
D0
90
D0
58
68
38
ENDCHAR
STARTCHAR bar
ENCODING 124
SWIDTH 166 0
DWIDTH 2 0
BBX 3 9 -1 -1
BITMAP
E0
A0
A0
A0
A0
A0
A0
A0
E0
ENDCHAR
STARTCHAR braceright
ENCODING 125
SWIDTH 333 0
DWIDTH 4 0
BBX 5 9 -1 0
BITMAP
E0
B0
D0
58
68
58
D0
B0
E0
ENDCHAR
ENDFONT
